<?xml version="1.0" encoding="utf-8"?>
<!-- Generator: Adobe Illustrator 16.0.0, SVG Export Plug-In . SVG Version: 6.00 Build 0)  -->
<!DOCTYPE svg PUBLIC "-//W3C//DTD SVG 1.1//EN" "http://www.w3.org/Graphics/SVG/1.1/DTD/svg11.dtd">
<svg version="1.1" id="Layer_1" xmlns="http://www.w3.org/2000/svg" xmlns:xlink="http://www.w3.org/1999/xlink" x="0px" y="0px"
	 width="595.654px" height="245px" viewBox="0 0 595.654 245" enable-background="new 0 0 595.654 245" xml:space="preserve">
<path fill="#B62426" d="M322.979,33.14l0.219,0.409l0.682,0.415c0.013-0.026-0.003-0.071-0.027-0.093
	c0.048-0.091,0.12-0.197,0.148-0.27l0.313-1.026c-0.014-0.74,0.073-0.644-0.385-0.647c2.063-1.15,2.753,0.729,0.195-1.198
	l23.852-0.1l0.012-21.822L248.23,8.615l-0.028,112.604l26.942,12.002l0.137-100.313C280.521,32.818,321.584,32.523,322.979,33.14"/>
<path fill="#EC2727" d="M323.185,133.063l0.014-99.514l-0.217-0.409c-3.804,1.172-25.997,7.698-27.579,8.828l-0.139,82.267
	C296.762,125.23,322.565,133.242,323.185,133.063"/>
<path fill="#B62426" d="M323.196,29.796l-0.014,103.267c3.646-1.604,22.656-14.714,24.62-15.094l0.17-91.201l-23.852,0.102
	c-2.01,0.404,0.523,0.349-2.298,0.235c1.735,0.366,1.489-0.364,2.103,1.008c0.458,0.003,0.371-0.096,0.384,0.672l-0.313,1.065
	c-0.028,0.074-0.103,0.184-0.148,0.28c0.024,0.021,0.04,0.068,0.027,0.096L323.196,29.796z"/>
<path fill="#444444" d="M8.313,198.172h14.101l-0.369-24.396c1.354,0.881,3.968,4.502,5.355,6.021
	c1.768,1.937,3.332,4.058,5.22,6.115l7.732,9.104c3.603,4.233,0.688,3.116,14.553,3.178c1.312-2.301,4.615-5.508,6.343-7.569
	l7.947-9.218c1.922-2.178,4.529-5.75,6.644-7.557l-0.755,24.349l14.397,0.01l-0.003-31.993l-22.711-0.025
	c-0.801,0.22-12.036,14.144-13.381,15.918l-4.358,5.168L31.574,166.23l-23.013-0.063C7.674,169.307,8.377,192.85,8.313,198.172"/>
<path fill="#444444" d="M518.781,198.436l14.086,0.061l0.021-8.021c2.063-0.525,11.178-0.199,13.873-0.199
	c2.006,0,12.677-0.437,13.382,0.557c4.021,0.102,3.316,4.268,3.313,7.773l14.854-0.106c0.098-11.069-0.31-11.457-11.225-12.163
	c3.781-1.62,12.186,0.428,11.939-9.938c-0.185-7.764-6.616-10.178-12.574-9.621c-2.948,0.285-8.574-0.141-11.912-0.141l-35.879-0.07
	L518.781,198.436z M533.013,182.618l0.006-8.269c5.697,0,21.285-0.265,26.363,0.1c2.945,0.208,4.676,0.826,4.88,3.887
	c0.369,5.469-6.781,4.348-13.29,4.309C544.992,182.605,538.995,182.604,533.013,182.618z"/>
<polygon fill="#444444" points="454.01,198.58 507.708,198.45 507.725,191.173 468.525,191.148 468.414,185.609 505.021,185.602 
	505.021,179.202 468.498,179.186 468.383,173.753 507.173,173.725 507.244,166.471 454.148,166.405 "/>
<path fill="#444444" d="M443.243,191.261l-39.17-0.065c-0.526-1.664-0.375-4.016-0.111-5.713l36.597-0.116l0.008-6.168
	l-36.454-0.043l-0.12-5.363l38.687-0.106l0.09-7.233l-52.925-0.068c-0.758,2.677-0.341,27.41-0.23,32.04l53.618,0.012
	L443.243,191.261z"/>
<path fill="#444444" d="M175.567,198.075l14.445,0.044c-0.012-2.639-0.458-10.212,0.277-12.225l33.073-0.096
	c0.578,1.947,0.262,9.905,0.215,12.328c3.192-0.054,12.123,0.5,14.536-0.165l-0.006-31.633l-14.529-0.047
	c0.042,2.385,0.353,10.077-0.22,11.993l-33.017-0.133c-0.704-1.852-0.287-9.358-0.267-11.84l-14.482-0.063L175.567,198.075z"/>
<path fill="#444444" d="M244.98,198.314c4.383,0.098,8.814-0.019,13.205,0.021c3.513,0.028,3.051,0.187,4.742-1.99
	c1.041-1.341,2.104-2.469,2.898-3.784l31.257,0.018c0.476,0.846,1.897,2.438,2.585,3.208c1.279,1.431,1.096,2.545,3.535,2.545
	l14.265,0.019c-0.56-1.203-2.179-3.01-3.059-4.027l-16.331-19.938c-1.047-1.358-2.102-2.592-3.207-3.923
	c-1.118-1.352-2.448-2.807-3.233-4.164l-19.921-0.013l-6.572,7.993c-2.431,2.687-4.537,5.393-6.813,8.09l-6.696,7.874
	C250.528,191.678,245.369,197.28,244.98,198.314 M271.497,185.811c0.63-1.449,8.435-10.135,9.557-12.463
	c1.147,0.637,10.141,11.62,10.503,12.518L271.497,185.811z"/>
<path fill="#444444" d="M96.383,198.199h16.526c0.633-1.174,3.237-4.536,4.384-5.623l31.237-0.121
	c0.661,1.221,1.833,2.529,2.79,3.664c1.432,1.695,1.314,2.186,4.175,2.15c4.381-0.047,8.879-0.07,13.256,0.008
	c-0.218-0.901-5.184-6.711-6.173-7.912l-13.126-16.027c-1.587-2.087-5.471-6.385-6.424-8.097
	c-2.947-0.021-17.803-0.382-19.493,0.079c-1.008,0.271-3.917,4.061-4.759,5.061L96.383,198.199z M122.884,185.721
	c0.635-1.598,8.278-9.881,9.488-12.417c1.47,0.673,1.83,1.703,3.034,3.101c0.862,1,1.663,2.014,2.482,3.027
	c1.528,1.895,3.94,4.354,5.031,6.342L122.884,185.721z"/>
<path fill="#444444" d="M337.858,198.369l14.901,0.003c4.459,0.04,2.753,0.101,8.091-6.127c2.49-2.901,20.818-24.627,21.39-25.894
	l-16.228,0.004c-2.31,3.662-17.257,20.938-18.982,24.004c-1.378-0.73-12.983-16.094-14.348-17.873
	c-0.793-1.031-1.385-1.746-2.276-2.901c-0.808-1.043-1.499-2.103-2.383-3.134l-16.11-0.151c0.75,1.529,17.271,21.858,19.184,24.291
	C332.188,191.98,336.71,197.955,337.858,198.369"/>
<path fill="#444444" d="M258.555,220.426c-1.362,1.204-2.887,1.887-3.739,3.784c-0.777,1.735-0.503,4.285,0.627,5.749
	c3.953,5.139,9.601,0.713,10.523,0.248c1.159,1.71,1.297,1.941,4.056,1.747c-0.272-0.734-2.056-3.007-2.699-3.679
	c0.7-1.861,1.386-3.088,1.556-5.58l-1.953-0.03l-0.625,1.718c-0.158,0.771-0.198,1.061-0.413,1.78
	c-0.818-0.749-3.689-4.449-4.091-5.437c1.346-0.721,3.181-2.223,3.456-4.246c0.322-2.373-1.128-4.111-3.215-4.465
	c-2.636-0.442-4.612,0.646-5.185,2.558C256.117,217.031,257.722,218.884,258.555,220.426 M260.351,219.234
	c-0.454-1.142-1.77-2.517-1.222-4.256c0.516-1.634,2.063-1.225,3.414-0.85C263.374,216.607,262.694,218.6,260.351,219.234z
	 M259.802,222.182c0.826,0.707,4.29,5.438,4.731,6.305c-1.46,1.947-4.809,2.718-6.753,0.438
	C255.563,226.324,257.735,222.993,259.802,222.182z"/>
<path fill="#444444" d="M171.746,231.963l2.17,0.044c0.319-2.151,0.124-5.726,0.115-8.017c-0.011-2.754-0.066-5.156,2.917-5.404
	c4.826-0.398,1.848,6.506,2.897,13.421l2.16-0.013c0.88-5.901-1.623-12.736,2.762-13.383c4.699-0.693,2.375,5.766,2.999,13.293
	l2.26,0.09c0.206-1.928,0.294-10.727,0.006-12.43c-0.307-1.814-1.561-2.713-3.412-2.857c-2.739-0.217-3.52,0.975-4.874,1.836
	c-0.999-1.044-1.517-1.836-3.558-1.859c-1.933-0.021-3.313,0.713-3.956,1.762c-0.619-0.887-0.099-0.516-0.583-1.395l-1.76-0.012
	L171.746,231.963z"/>
<path fill="#444444" d="M296.281,222.243l8.145,0.11l0.125,9.662l2.367-0.115c0.116-4.979-0.402-16.09,0.271-19.816l-2.765-0.111
	l0.014,8.229l-8.156,0.023l0.01-8.168l-2.518-0.084c0.026,5.409-0.248,15.514,0.108,20.117l2.367-0.17l0.034-1.453L296.281,222.243z
	"/>
<path fill="#444444" d="M129.326,222.264l8.154-0.015l0.068,9.717l2.446,0.017c-0.004-4.082-0.251-16.899,0.151-20.037l-2.663,0.144
	l0.008,8.132l-8.164-0.091l0.006-8.19l-2.508,0.177l0.051,19.848l2.436,0.028L129.326,222.264z"/>
<path fill="#444444" d="M430.248,223.674c2.886-0.297,10.952,1.081,10.01-7.137c-0.637-5.549-7.438-4.581-12.496-4.581
	l-0.004,20.032h2.084l0.375-1.188c0.024-0.158,0.043-0.785,0.043-0.97L430.248,223.674z M430.26,213.994
	c3.793-0.35,7.667-0.495,7.487,3.844c-0.167,3.979-3.771,4.063-7.521,3.619L430.26,213.994z"/>
<path fill="#444444" d="M161.5,227.555c1.808-8.554-3.195-12.848-8.273-10.393c-4.252,2.059-4.066,12.613-0.038,14.665
	C157.348,233.945,160.699,231.341,161.5,227.555 M154.7,218.848c5.725-2.701,5.836,10.188,2.605,11.502
	c-3.4,1.39-4.44-1.783-4.598-4.438c-0.079-1.338-0.069-2.951,0.173-4.271C153.237,219.693,153.448,219.438,154.7,218.848z"/>
<path fill="#444444" d="M317.258,226.256c0.349,4.303,2.596,7.162,7.438,5.958c6.057-1.505,5.994-17.789-3.455-15.433
	C317.599,217.691,316.914,222.005,317.258,226.256 M321.72,218.751c5.598-2.897,5.517,10.101,2.657,11.537
	C318.623,233.182,318.301,220.521,321.72,218.751z"/>
<path fill="#444444" d="M466.438,221.005c1.632-0.604,0.021-2.647,3.245-2.636c2.527,0.01,2.412,1.48,2.146,3.599
	c-2.807,2.208-7.267,1.474-7.302,6.229c-0.037,4.951,5.534,5.414,7.351,2.212c0.056,0.063,0.118,0.159,0.155,0.211
	c1.907,2.535,3.301,1.313,3.317,1.269c0.055-0.113,0.185-0.074,0.268-0.123c-0.03-2.943-0.913,0.144-1.321-2.602
	c-0.31-2.088,0.603-8.8-0.515-10.898c-1.392-2.613-9.252-2.742-8.688,2.742L466.438,221.005z M471.87,224.146
	c0.291,1.519,0.291,3.863-0.489,5.108c-2.368,3.784-6.831-1.168-3.449-3.444C468.613,225.352,471.12,224.491,471.87,224.146z"/>
<path fill="#444444" d="M68.097,226.928l-2.073,0.01c-0.46,1.938-0.116,2.285-1.493,3.477c-4.015,0.826-4.188-2.258-4.155-5.719
	l7.732-0.104c0.568-3.957-0.563-7.664-4.315-7.98c-4.18-0.354-5.496,2.623-5.768,6.41c-0.274,3.812,0.212,8.088,3.214,9.104
	C65.341,233.505,68.247,231.025,68.097,226.928 M60.724,220.811c0.101-1.752,1.276-2.938,3.371-2.311
	c1.538,0.461,1.712,2.261,1.813,4.223c-0.077,0.037-0.189,0.021-0.235,0.118l-2.468,0.192c-1.018-0.006-1.832,0.021-2.847-0.1
	C60.069,220.574,60.614,220.949,60.724,220.811z"/>
<path fill="#444444" d="M369.063,226.928l-1.729,0.01c-0.836,0.914-0.536,4.449-3.821,3.566c-2.078-0.557-2.257-3.538-2.15-5.906
	l7.773-0.017c0.345-4.05-0.452-7.519-4.146-7.945c-8.032-0.933-7.407,13.739-2.831,15.454
	C366.102,233.563,369.315,230.907,369.063,226.928 M361.624,221.23c0.074-3.627,4.74-4.172,5.041-0.232
	c0.458,0.883,0.399,0.71,0.235,2.047l-5.614-0.132C361.185,221.835,361.029,221.921,361.624,221.23z"/>
<path fill="#444444" d="M209.792,228.829l0.288-1.709l-2.146,0.173c-0.34,4.447-5.711,5.754-5.502-2.7h7.95
	c-0.41-3.598-0.156-7.134-3.862-7.886c-8.433-1.712-7.585,12.389-4.163,14.859C205.114,233.555,209.746,232.021,209.792,228.829
	 M207.543,220.493c0.684,0.722,0.596,1.342,0.404,2.463c-0.831,0.063-5.164,0.233-5.325-0.122c-0.042-0.092-0.148-0.077-0.223-0.114
	C202.749,216.614,207.269,217.707,207.543,220.493z"/>
<path fill="#444444" d="M552.341,226.578c0.504,2.82,1.04,5.205,3.923,5.723c3.554,0.641,5.038-0.97,6.078-3.453l0.094-1.619
	l-2.067-0.209c-0.829,2.244,0.088,1.394-1.532,3.435c-4.017,0.669-4.308-2.313-4.128-5.845l7.761-0.125
	c0.428-4.526-0.936-8.558-5.878-7.832C552.304,217.282,552.18,222.364,552.341,226.578 M554.936,221.162
	c0.278-3.755,4.855-3.866,4.948-0.264c0.603,0.549,0.442,0.979,0.34,1.977c-1.511,0.418-4.029,0.335-5.604,0.059
	C554.489,221.811,554.354,221.955,554.936,221.162z"/>
<path fill="#444444" d="M340.951,231.954c0.479-4.345-1.653-13.104,3.113-13.361c4.273-0.231,2.021,6.69,2.688,13.38l2.106,0.037
	c0.291-1.859,0.297-10.312,0.043-12.228c-0.285-2.144-1.095-2.877-3.251-3.054c-2.583-0.209-3.363,0.554-4.51,1.771
	c-0.036-0.078-0.051-0.198-0.072-0.254c-0.193-0.462,0.166-1.215-1.915-1.218c-0.305,0.431-0.175,0.104-0.358,0.83
	c-0.099,0.375-0.099,0.541-0.121,0.933l0.168,13.226L340.951,231.954z"/>
<path fill="#444444" d="M219.862,227.495c0.153,3.964,2.178,5.552,6.477,4.778c2.851-0.514,5.286-3.881,3.213-6.862
	c-1.629-2.345-6.46-1.827-7.126-4.192c-0.48-1.703,0.734-2.773,2.399-2.82c2.532-0.07,1.98,1,2.913,2.553l1.872,0.016
	c0.703-5.736-8.043-5.466-9.252-1.736c-2.127,6.562,6.653,4.643,7.549,8.974c-0.417,1.676-1.384,2.466-3.381,2.258
	c-2.27-0.231-1.954-1.31-2.617-2.948L219.862,227.495z"/>
<path fill="#444444" d="M5.545,231.793l2.399,0.034l-0.024-9.263c1.847-0.897,5.005-0.355,7.062-0.355l-0.057-1.802l-6.866,0.009
	l0.074-6.406l7.575-0.007l-0.006-1.349l0.008-0.698l-10.144,0.008L5.545,231.793z"/>
<path fill="#444444" d="M85.434,220.813l2.071-0.008l-0.034-1.064c-0.314-2.827-4.018-3.922-6.953-2.74
	c-2.901,1.161-3.353,5.453-0.845,7.044c2.188,1.392,6.792,1.438,6.074,4.677c-0.5,2.254-4.386,2.262-5.299,0.717
	c-1.034-1.754,0.58-1.978-2.626-1.918c0.193,8.213,12.847,5.361,9.999-1.588c-1.096-2.683-5.871-2.38-7.086-3.931
	C78.311,218.902,84.862,216.111,85.434,220.813"/>
<path fill="#444444" d="M575.552,225.089c2.329-0.03,6.19,1.933,4.09,4.567c-0.657,0.824-2.567,1.099-3.836,0.607
	c-2.438-0.949,0.034-3.669-3.658-2.637c0.046,2.184,0.49,3.334,2.093,4.198c2.141,1.155,7.447,0.975,8.126-3.031
	c0.501-2.987-0.729-3.001-1.418-4.433c-2.047-0.658-6.237-1.271-6.329-3.627c-0.118-2.828,4.625-3.648,5.118,0.037l2.153,0.035
	l-0.33-1.509c-0.293-3.131-5.771-3.479-7.959-1.515c-1.01,0.908-1.531,2.607-1.026,4.373
	C573.094,223.99,574.435,223.885,575.552,225.089"/>
<path fill="#444444" d="M386.421,220.614l2.099,0.149l-0.14-1.406c-0.442-2.715-4.688-3.523-7.174-2.232
	c-2.437,1.261-3.091,5.155-0.604,6.877c0.402,0.279,1.106,0.613,1.731,0.873c0.972,0.405,1.009,0.354,1.913,0.666
	c6.354,2.184-0.297,7.338-2.706,3.995c-0.533-0.74-0.024,0.03-0.384-0.861l-0.545-1.186l-1.798-0.007
	c0.198,8.884,13.457,4.539,9.821-1.814c-1.44-2.525-5.963-1.88-7.1-3.924C379.825,218.661,385.534,216.378,386.421,220.614"/>
<path fill="#444444" d="M39.885,217.359l-2.019-0.135l0.029,14.643l1.953-0.003c-0.043-1.857-0.023-3.735-0.023-5.608
	c0-0.863,0.004-1.724-0.002-2.588c-0.01-1.279-0.156-1.741,0.368-2.756c0.604-2.332,2.859-2.523,5.014-1.914
	c1.279,3.382,0.024,8.996,0.589,12.99l2.121,0.009c0.277-1.923,0.285-10.253,0.01-12.181c-0.278-1.975-1.072-2.877-3.17-3.08
	c-2.936-0.28-3.396,0.785-4.841,1.75L39.885,217.359z"/>
<path fill="#444444" d="M585.594,153.552c-11.564,2.238-8.485,18.938,2.854,17.188c4.396-0.681,7.927-4.834,7.084-10.123
	C594.861,156.436,590.653,152.573,585.594,153.552 M579.824,163.423c-1.566-9.854,12.759-11.457,14.257-2.575
	C595.763,170.802,581.237,172.282,579.824,163.423z"/>
<path fill="#444444" d="M542.066,226.736l-1.65-0.01c-0.6,2.211-0.739,4.385-3.619,3.701c-3.313-0.777-2.991-10.342-0.685-11.586
	c2.979-1.604,3.502,1.155,4.171,2.777l2.057,0.104c0.06-3.117-1.332-4.259-3.645-5.031c-3.397-0.221-5.286,0.723-6.172,3.401
	c-0.75,2.274-0.79,6.447-0.021,8.755c0.833,2.492,2.805,3.979,6.065,3.459C542.026,231.756,543.129,227.732,542.066,226.736"/>
<path fill="#444444" d="M494.871,228.479l0.17-1.631l-2.202,0.101c-0.059,2.301-1.278,4.424-3.864,3.354
	c-2.512-1.044-2.909-10.712,0.307-11.654c1.244-0.364,2.236,0.011,2.789,0.762c1.428,1.947-0.588,2.301,2.929,2.305
	c0.084-6.734-10.202-8.134-10.432,2.268C484.305,235.673,494.215,233.62,494.871,228.479"/>
<path fill="#444444" d="M399.563,216.893c-0.085,0.039-0.18,0.098-0.246,0.118l-1.978,0.181l0.294,1.589l1.882-0.031
	c0.114,3.468-0.021,6.978,0.019,10.442c0.018,1.734,0.146,2.61,2.013,3.013c2.461,0.53,2.897,0.354,2.896-1.656l-2.383-0.468
	c-0.495-1.833-0.277-8.671-0.234-11.244l2.271-0.053l0.232-1.576l-2.603-0.163l-0.224-4.005l-1.945,0.121L399.563,216.893z"/>
<path fill="#444444" d="M505.782,216.896l-1.421,0.354c-0.09,0.02-0.207,0.048-0.275,0.063l-0.224,1.473l1.87-0.033
	c0.076,2.604,0.029,5.268,0.026,7.88c-0.003,2.493-0.685,5.072,1.979,5.49l2.749-0.006l-0.06-1.697l-2.164-0.315
	c-0.508-1.996-0.271-8.596-0.234-11.275l2.313-0.038l0.211-1.61l-2.613-0.125l-0.211-4.005l-1.96,0.093L505.782,216.896z"/>
<path fill="#444444" d="M98.673,216.938l-1.13,0.401c-0.64,0.134-0.358-0.05-1.101,0.175c0.259,1.862,0.721,0.564,2.061,1.398
	c0.248,2.248,0.085,5.324,0.08,7.669c-0.003,2.536-0.638,4.998,1.896,5.583l2.847-0.014l-0.067-1.692l-2.187-0.26
	c-0.514-2.06-0.295-8.775-0.235-11.392l2.339-0.062l0.191-1.604c-0.3,0-1.424,0.055-1.63,0.021
	c-1.423-0.229-0.534,0.266-0.903-0.509l-0.04-3.629l-2.172,0.039L98.673,216.938z"/>
<path fill="#444444" d="M451.713,231.936c0.736-6.859-1.738-12.142,3.146-13.021c1.646-0.298,1.585,0.734,1.598-2.188
	c-2.904-0.107-3.542,0.545-4.763,2.301l-0.043-1.997c-2.597,0-2.241-0.498-2.176,2.405c0.07,3.181-0.18,10.453,0.158,12.578
	L451.713,231.936z"/>
<path fill="#444444" d="M588.173,163.188c-0.396-0.403-0.605,0.563-0.223-0.638l0.792-0.257c1.994-0.421,4.11-5.921-5.604-4.626
	c-0.007,2.06-0.444,7.831,0.225,9.274l0.973,0.049l0.383-1.592c0.034-0.7-0.021-1.653-0.021-2.385
	c2.929-0.091,3.276,1.756,4.394,3.967l1.823,0.006C590.241,165.405,589.281,164.023,588.173,163.188 M584.711,158.909
	c1.89-0.078,3.369-0.472,4.041,1.274c-0.486,1.866-1.771,1.512-4.016,1.469L584.711,158.909z"/>
<polygon fill="#444444" points="519.62,231.997 521.871,232.007 521.891,217.025 519.5,217.039 "/>
<polygon fill="#444444" points="25.019,232.003 27.263,231.997 27.286,217.031 24.888,217.027 "/>
<polygon fill="#444444" points="24.894,214.273 24.898,214.719 27.273,214.713 27.278,211.96 26.283,211.956 24.892,211.953 "/>
<polygon fill="#444444" points="519.509,214.701 521.884,214.729 521.888,211.953 519.5,211.96 "/>
<path fill="#444444" d="M209.792,228.829c0.558-0.692,0.438-0.78,0.626-1.937c-0.292-0.019-1.218-0.123-1.489-0.082
	c-1.542,0.229-0.456,0.032-0.996,0.48l2.146-0.173L209.792,228.829z"/>
<path fill="#444444" d="M85.434,220.813c0.184,0.09-0.121,0.272,1.078,0.313c0.597,0.021,0.675-0.065,1.188-0.168
	c0.127-1.21,0.184-0.472-0.228-1.22l0.034,1.063L85.434,220.813z"/>
</svg>
